<svg width="31" height="29" viewBox="0 0 31 29" fill="none" xmlns="http://www.w3.org/2000/svg">
    <path fill-rule="evenodd" clip-rule="evenodd" d="M28 7.00065H23.7733L21.3333 4.33398H13.3333V7.00065H20.16L22.6 9.66732H28V25.6673H6.66667V13.6673H4V25.6673C4 27.134 5.2 28.334 6.66667 28.334H28C29.4667 28.334 30.6667 27.134 30.6667 25.6673V9.66732C30.6667 8.20065 29.4667 7.00065 28 7.00065ZM10.6667 17.6673C10.6667 21.3473 13.6533 24.334 17.3333 24.334C21.0133 24.334 24 21.3473 24 17.6673C24 13.9873 21.0133 11.0007 17.3333 11.0007C13.6533 11.0007 10.6667 13.9873 10.6667 17.6673ZM17.3333 13.6673C19.5333 13.6673 21.3333 15.4673 21.3333 17.6673C21.3333 19.8673 19.5333 21.6673 17.3333 21.6673C15.1333 21.6673 13.3333 19.8673 13.3333 17.6673C13.3333 15.4673 15.1333 13.6673 17.3333 13.6673ZM6.66667 7.00065H10.6667V4.33398H6.66667V0.333984H4V4.33398H0V7.00065H4V11.0007H6.66667V7.00065Z" fill="currentColor"/>
</svg>
